<svg width="80" height="80" viewBox="0 0 80 80" fill="none" xmlns="http://www.w3.org/2000/svg">
<path d="M40 80C62.0914 80 80 62.0914 80 40C80 17.9086 62.0914 0 40 0C17.9086 0 0 17.9086 0 40C0 62.0914 17.9086 80 40 80Z" fill="#3D3D4C"/>
<path d="M47.8395 55.6808C60.8634 51.2764 67.9115 40.6853 63.5819 32.0251C59.2522 23.3648 45.1844 19.9147 32.1605 24.3191C19.1365 28.7235 12.0884 39.3145 16.4181 47.9748C20.7477 56.635 34.8155 60.0852 47.8395 55.6808Z" stroke="white" stroke-width="0.879694"/>
<path d="M46.1972 52.3957C56.4927 48.914 62.0644 40.5417 58.6418 33.6957C55.2191 26.8496 44.0984 24.1224 33.8028 27.6041C23.5073 31.0858 17.9357 39.4581 21.3583 46.3041C24.7809 53.1501 35.9016 55.8774 46.1972 52.3957Z" stroke="white" stroke-width="0.879694"/>
<path d="M46.2486 38.6428C48.2284 37.9732 49.2998 36.3633 48.6417 35.0469C47.9835 33.7304 45.8451 33.2059 43.8653 33.8754C41.8855 34.545 40.8141 36.1549 41.4723 37.4714C42.1304 38.7879 44.2689 39.3123 46.2486 38.6428Z" stroke="white" stroke-width="0.879694"/>
<path d="M46.7883 49.2576C48.7681 48.588 49.8395 46.9781 49.1814 45.6617C48.5232 44.3452 46.3847 43.8207 44.4049 44.4902C42.4251 45.1598 41.3538 46.7697 42.0119 48.0862C42.6701 49.4027 44.8085 49.9271 46.7883 49.2576Z" stroke="white" stroke-width="0.879694"/>
<path d="M33.0366 44.993C35.0163 44.3234 36.0877 42.7135 35.4296 41.397C34.7714 40.0805 32.6329 39.556 30.6531 40.2256C28.6733 40.8951 27.602 42.5051 28.2601 43.8215C28.9183 45.138 31.0568 45.6625 33.0366 44.993Z" stroke="white" stroke-width="0.879694"/>
<path d="M38.0575 35.6675C40.0373 34.998 41.1087 33.388 40.4506 32.0715C39.7924 30.755 37.6539 30.2306 35.6741 30.9001C33.6943 31.5696 32.6229 33.1796 33.2811 34.4961C33.9392 35.8125 36.0777 36.337 38.0575 35.6675Z" stroke="white" stroke-width="0.879694"/>
<path d="M38.2282 43.2789L45.7361 41.4402" stroke="white" stroke-width="0.879694"/>
<path d="M32.6989 47.6003L36.6297 49.563" stroke="white" stroke-width="0.879694"/>
<path d="M24.8712 40.3711L28.299 35.8498" stroke="white" stroke-width="0.879694"/>
<path d="M43.4079 29.6195L48.9606 31.0338" stroke="white" stroke-width="0.879694"/>
<path d="M52.3079 44.261L53.9925 41.3098" stroke="white" stroke-width="0.879694"/>
<path d="M51.9243 38.437L56.4014 35.382" stroke="white" stroke-width="0.879694"/>
</svg>
